<mxfile host="app.diagrams.net" agent="Mozilla/5.0 (X11; Linux x86_64) AppleWebKit/537.36 (KHTML, like Gecko) Chrome/138.0.0.0 Safari/537.36" version="28.0.6">
  <diagram name="Page-1" id="gXIk4u6lcVMkyI5oS8Xy">
    <mxGraphModel dx="1342" dy="738" grid="1" gridSize="10" guides="1" tooltips="1" connect="1" arrows="1" fold="1" page="1" pageScale="1" pageWidth="850" pageHeight="1100" math="0" shadow="0">
      <root>
        <mxCell id="0" />
        <mxCell id="1" parent="0" />
        <mxCell id="ktyG6adJuwGK9dDU-hrX-1" value="ทบทวนสัญลักษณ์" style="swimlane;fontFamily=Sarabun;fontSource=https://fonts.googleapis.com/css?family=Sarabun;" vertex="1" parent="1">
          <mxGeometry x="440" y="40" width="640" height="290" as="geometry" />
        </mxCell>
        <mxCell id="ktyG6adJuwGK9dDU-hrX-2" value="&lt;font data-font-src=&quot;https://fonts.googleapis.com/css?family=Sarabun&quot; face=&quot;Sarabun&quot;&gt;เริ่มต้น&lt;/font&gt;" style="ellipse;whiteSpace=wrap;html=1;" vertex="1" parent="ktyG6adJuwGK9dDU-hrX-1">
          <mxGeometry x="20" y="40" width="130" height="30" as="geometry" />
        </mxCell>
        <mxCell id="ktyG6adJuwGK9dDU-hrX-3" value="" style="endArrow=classic;html=1;rounded=0;" edge="1" parent="ktyG6adJuwGK9dDU-hrX-1">
          <mxGeometry width="50" height="50" relative="1" as="geometry">
            <mxPoint x="84.5" y="70" as="sourcePoint" />
            <mxPoint x="84.5" y="120" as="targetPoint" />
          </mxGeometry>
        </mxCell>
        <mxCell id="ktyG6adJuwGK9dDU-hrX-4" value="&lt;font face=&quot;Sarabun&quot;&gt;สิ้นสุด&lt;/font&gt;" style="ellipse;whiteSpace=wrap;html=1;" vertex="1" parent="ktyG6adJuwGK9dDU-hrX-1">
          <mxGeometry x="150" y="90" width="130" height="30" as="geometry" />
        </mxCell>
        <mxCell id="ktyG6adJuwGK9dDU-hrX-5" value="" style="endArrow=classic;html=1;rounded=0;" edge="1" parent="ktyG6adJuwGK9dDU-hrX-1">
          <mxGeometry width="50" height="50" relative="1" as="geometry">
            <mxPoint x="214.5" y="40" as="sourcePoint" />
            <mxPoint x="214.5" y="90" as="targetPoint" />
          </mxGeometry>
        </mxCell>
        <mxCell id="ktyG6adJuwGK9dDU-hrX-6" value="กระบวนการ" style="rounded=0;whiteSpace=wrap;html=1;fontFamily=Sarabun;fontSource=https://fonts.googleapis.com/css?family=Sarabun;" vertex="1" parent="ktyG6adJuwGK9dDU-hrX-1">
          <mxGeometry x="320" y="70" width="120" height="30" as="geometry" />
        </mxCell>
        <mxCell id="ktyG6adJuwGK9dDU-hrX-7" value="" style="endArrow=classic;html=1;rounded=0;" edge="1" parent="ktyG6adJuwGK9dDU-hrX-1">
          <mxGeometry width="50" height="50" relative="1" as="geometry">
            <mxPoint x="379" y="40" as="sourcePoint" />
            <mxPoint x="379.5" y="70" as="targetPoint" />
          </mxGeometry>
        </mxCell>
        <mxCell id="ktyG6adJuwGK9dDU-hrX-8" value="" style="endArrow=classic;html=1;rounded=0;" edge="1" parent="ktyG6adJuwGK9dDU-hrX-1">
          <mxGeometry width="50" height="50" relative="1" as="geometry">
            <mxPoint x="379.75" y="100" as="sourcePoint" />
            <mxPoint x="380.25" y="130" as="targetPoint" />
          </mxGeometry>
        </mxCell>
        <mxCell id="ktyG6adJuwGK9dDU-hrX-9" value="ประโยคเงื่อนไข" style="rhombus;whiteSpace=wrap;html=1;fontFamily=Sarabun;fontSource=https://fonts.googleapis.com/css?family=Sarabun;" vertex="1" parent="ktyG6adJuwGK9dDU-hrX-1">
          <mxGeometry x="490" y="60" width="100" height="60" as="geometry" />
        </mxCell>
        <mxCell id="ktyG6adJuwGK9dDU-hrX-10" value="" style="endArrow=classic;html=1;rounded=0;" edge="1" parent="ktyG6adJuwGK9dDU-hrX-1">
          <mxGeometry width="50" height="50" relative="1" as="geometry">
            <mxPoint x="539.71" y="30" as="sourcePoint" />
            <mxPoint x="540.21" y="60" as="targetPoint" />
          </mxGeometry>
        </mxCell>
        <mxCell id="ktyG6adJuwGK9dDU-hrX-11" value="" style="endArrow=classic;html=1;rounded=0;" edge="1" parent="ktyG6adJuwGK9dDU-hrX-1">
          <mxGeometry width="50" height="50" relative="1" as="geometry">
            <mxPoint x="539.71" y="120" as="sourcePoint" />
            <mxPoint x="540" y="175" as="targetPoint" />
          </mxGeometry>
        </mxCell>
        <mxCell id="ktyG6adJuwGK9dDU-hrX-12" value="จริง" style="edgeLabel;html=1;align=center;verticalAlign=middle;resizable=0;points=[];fontFamily=Sarabun;fontSource=https://fonts.googleapis.com/css?family=Sarabun;" vertex="1" connectable="0" parent="ktyG6adJuwGK9dDU-hrX-11">
          <mxGeometry x="-0.4142" y="-1" relative="1" as="geometry">
            <mxPoint as="offset" />
          </mxGeometry>
        </mxCell>
        <mxCell id="ktyG6adJuwGK9dDU-hrX-13" value="" style="endArrow=classic;html=1;rounded=0;exitX=1;exitY=0.5;exitDx=0;exitDy=0;" edge="1" parent="ktyG6adJuwGK9dDU-hrX-1" source="ktyG6adJuwGK9dDU-hrX-9">
          <mxGeometry width="50" height="50" relative="1" as="geometry">
            <mxPoint x="620" y="95" as="sourcePoint" />
            <mxPoint x="610" y="175" as="targetPoint" />
            <Array as="points">
              <mxPoint x="610" y="90" />
            </Array>
          </mxGeometry>
        </mxCell>
        <mxCell id="ktyG6adJuwGK9dDU-hrX-14" value="&lt;font data-font-src=&quot;https://fonts.googleapis.com/css?family=Sarabun&quot; face=&quot;Sarabun&quot;&gt;เท็จ&lt;/font&gt;" style="edgeLabel;html=1;align=center;verticalAlign=middle;resizable=0;points=[];" vertex="1" connectable="0" parent="ktyG6adJuwGK9dDU-hrX-13">
          <mxGeometry x="-0.0019" y="-2" relative="1" as="geometry">
            <mxPoint as="offset" />
          </mxGeometry>
        </mxCell>
        <mxCell id="ktyG6adJuwGK9dDU-hrX-15" value="&lt;font data-font-src=&quot;https://fonts.googleapis.com/css?family=Sarabun&quot; face=&quot;Sarabun&quot;&gt;ฟังก์ชัน/โมดูล&lt;/font&gt;" style="shape=process;whiteSpace=wrap;html=1;backgroundOutline=1;" vertex="1" parent="ktyG6adJuwGK9dDU-hrX-1">
          <mxGeometry x="25" y="180" width="120" height="30" as="geometry" />
        </mxCell>
        <mxCell id="ktyG6adJuwGK9dDU-hrX-16" value="" style="endArrow=classic;html=1;rounded=0;" edge="1" parent="ktyG6adJuwGK9dDU-hrX-1">
          <mxGeometry width="50" height="50" relative="1" as="geometry">
            <mxPoint x="84.70999999999998" y="150" as="sourcePoint" />
            <mxPoint x="85.20999999999998" y="180" as="targetPoint" />
          </mxGeometry>
        </mxCell>
        <mxCell id="ktyG6adJuwGK9dDU-hrX-17" value="" style="endArrow=classic;html=1;rounded=0;" edge="1" parent="ktyG6adJuwGK9dDU-hrX-1">
          <mxGeometry width="50" height="50" relative="1" as="geometry">
            <mxPoint x="84.70999999999998" y="210" as="sourcePoint" />
            <mxPoint x="85.20999999999998" y="240" as="targetPoint" />
          </mxGeometry>
        </mxCell>
        <mxCell id="ktyG6adJuwGK9dDU-hrX-18" value="" style="strokeWidth=2;html=1;shape=mxgraph.flowchart.start_2;whiteSpace=wrap;" vertex="1" parent="ktyG6adJuwGK9dDU-hrX-1">
          <mxGeometry x="205" y="185" width="20" height="20" as="geometry" />
        </mxCell>
        <mxCell id="ktyG6adJuwGK9dDU-hrX-19" value="" style="endArrow=classic;html=1;rounded=0;" edge="1" parent="ktyG6adJuwGK9dDU-hrX-1">
          <mxGeometry width="50" height="50" relative="1" as="geometry">
            <mxPoint x="214.70999999999998" y="155" as="sourcePoint" />
            <mxPoint x="215.20999999999998" y="185" as="targetPoint" />
          </mxGeometry>
        </mxCell>
        <mxCell id="ktyG6adJuwGK9dDU-hrX-20" value="" style="endArrow=classic;html=1;rounded=0;entryX=0;entryY=0.5;entryDx=0;entryDy=0;entryPerimeter=0;" edge="1" parent="ktyG6adJuwGK9dDU-hrX-1" target="ktyG6adJuwGK9dDU-hrX-18">
          <mxGeometry width="50" height="50" relative="1" as="geometry">
            <mxPoint x="189.99999999999997" y="155" as="sourcePoint" />
            <mxPoint x="190.49999999999997" y="185" as="targetPoint" />
            <Array as="points">
              <mxPoint x="190" y="180" />
            </Array>
          </mxGeometry>
        </mxCell>
        <mxCell id="ktyG6adJuwGK9dDU-hrX-21" value="" style="endArrow=classic;html=1;rounded=0;entryX=1;entryY=0.5;entryDx=0;entryDy=0;entryPerimeter=0;" edge="1" parent="ktyG6adJuwGK9dDU-hrX-1" target="ktyG6adJuwGK9dDU-hrX-18">
          <mxGeometry width="50" height="50" relative="1" as="geometry">
            <mxPoint x="239.99999999999997" y="155" as="sourcePoint" />
            <mxPoint x="240.49999999999997" y="185" as="targetPoint" />
            <Array as="points">
              <mxPoint x="240" y="180" />
            </Array>
          </mxGeometry>
        </mxCell>
        <mxCell id="ktyG6adJuwGK9dDU-hrX-22" value="" style="endArrow=classic;html=1;rounded=0;" edge="1" parent="ktyG6adJuwGK9dDU-hrX-1">
          <mxGeometry width="50" height="50" relative="1" as="geometry">
            <mxPoint x="214.70999999999998" y="205" as="sourcePoint" />
            <mxPoint x="215.20999999999998" y="235" as="targetPoint" />
          </mxGeometry>
        </mxCell>
        <mxCell id="ktyG6adJuwGK9dDU-hrX-23" value="&lt;font data-font-src=&quot;https://fonts.googleapis.com/css?family=Sarabun&quot; face=&quot;Sarabun&quot;&gt;ตัวเชื่อม&lt;/font&gt;" style="text;html=1;align=center;verticalAlign=middle;resizable=0;points=[];autosize=1;strokeColor=none;fillColor=none;" vertex="1" parent="ktyG6adJuwGK9dDU-hrX-1">
          <mxGeometry x="220" y="190" width="60" height="30" as="geometry" />
        </mxCell>
        <mxCell id="ktyG6adJuwGK9dDU-hrX-24" value="" style="endArrow=classic;html=1;rounded=0;" edge="1" parent="ktyG6adJuwGK9dDU-hrX-1">
          <mxGeometry width="50" height="50" relative="1" as="geometry">
            <mxPoint x="353.71" y="165" as="sourcePoint" />
            <mxPoint x="354.21" y="195" as="targetPoint" />
          </mxGeometry>
        </mxCell>
        <mxCell id="ktyG6adJuwGK9dDU-hrX-25" value="" style="verticalLabelPosition=bottom;verticalAlign=top;html=1;shape=offPageConnector;rounded=0;size=0.5;" vertex="1" parent="ktyG6adJuwGK9dDU-hrX-1">
          <mxGeometry x="339" y="195" width="30" height="30" as="geometry" />
        </mxCell>
        <mxCell id="ktyG6adJuwGK9dDU-hrX-26" value="" style="endArrow=classic;html=1;rounded=0;" edge="1" parent="ktyG6adJuwGK9dDU-hrX-1">
          <mxGeometry width="50" height="50" relative="1" as="geometry">
            <mxPoint x="405.71" y="195" as="sourcePoint" />
            <mxPoint x="406.21" y="225" as="targetPoint" />
          </mxGeometry>
        </mxCell>
        <mxCell id="ktyG6adJuwGK9dDU-hrX-27" value="" style="verticalLabelPosition=bottom;verticalAlign=top;html=1;shape=offPageConnector;rounded=0;size=0.5;" vertex="1" parent="ktyG6adJuwGK9dDU-hrX-1">
          <mxGeometry x="391" y="165" width="30" height="30" as="geometry" />
        </mxCell>
        <mxCell id="ktyG6adJuwGK9dDU-hrX-28" value="หน้าต่อไป" style="text;html=1;align=center;verticalAlign=middle;resizable=0;points=[];autosize=1;strokeColor=none;fillColor=none;fontFamily=Sarabun;fontSource=https://fonts.googleapis.com/css?family=Sarabun;" vertex="1" parent="ktyG6adJuwGK9dDU-hrX-1">
          <mxGeometry x="345" y="220" width="70" height="30" as="geometry" />
        </mxCell>
        <mxCell id="ktyG6adJuwGK9dDU-hrX-29" value="ก" style="text;html=1;align=center;verticalAlign=middle;resizable=0;points=[];autosize=1;strokeColor=none;fillColor=none;fontFamily=Sarabun;fontSource=https://fonts.googleapis.com/css?family=Sarabun;" vertex="1" parent="ktyG6adJuwGK9dDU-hrX-1">
          <mxGeometry x="339" y="190" width="30" height="30" as="geometry" />
        </mxCell>
        <mxCell id="ktyG6adJuwGK9dDU-hrX-30" value="ก" style="text;html=1;align=center;verticalAlign=middle;resizable=0;points=[];autosize=1;strokeColor=none;fillColor=none;fontFamily=Sarabun;fontSource=https://fonts.googleapis.com/css?family=Sarabun;" vertex="1" parent="ktyG6adJuwGK9dDU-hrX-1">
          <mxGeometry x="391" y="160" width="30" height="30" as="geometry" />
        </mxCell>
        <mxCell id="ktyG6adJuwGK9dDU-hrX-31" value="แสดงผล/รับค่า" style="shape=parallelogram;perimeter=parallelogramPerimeter;whiteSpace=wrap;html=1;fixedSize=1;fontFamily=Sarabun;fontSource=https://fonts.googleapis.com/css?family=Sarabun;" vertex="1" parent="ktyG6adJuwGK9dDU-hrX-1">
          <mxGeometry x="450" y="210" width="120" height="30" as="geometry" />
        </mxCell>
        <mxCell id="ktyG6adJuwGK9dDU-hrX-32" value="" style="endArrow=classic;html=1;rounded=0;" edge="1" parent="ktyG6adJuwGK9dDU-hrX-1">
          <mxGeometry width="50" height="50" relative="1" as="geometry">
            <mxPoint x="509.71" y="180" as="sourcePoint" />
            <mxPoint x="510.21" y="210" as="targetPoint" />
          </mxGeometry>
        </mxCell>
        <mxCell id="ktyG6adJuwGK9dDU-hrX-33" value="" style="endArrow=classic;html=1;rounded=0;" edge="1" parent="ktyG6adJuwGK9dDU-hrX-1">
          <mxGeometry width="50" height="50" relative="1" as="geometry">
            <mxPoint x="509.71" y="240" as="sourcePoint" />
            <mxPoint x="510.21" y="270" as="targetPoint" />
          </mxGeometry>
        </mxCell>
        <mxCell id="ktyG6adJuwGK9dDU-hrX-34" value="แก้ไขโจทย์ปัญหา" style="swimlane;fontFamily=Sarabun;fontSource=https://fonts.googleapis.com/css?family=Sarabun;" vertex="1" parent="1">
          <mxGeometry x="440" y="660" width="640" height="820" as="geometry" />
        </mxCell>
        <mxCell id="ktyG6adJuwGK9dDU-hrX-35" value="&lt;font data-font-src=&quot;https://fonts.googleapis.com/css?family=Sarabun&quot; face=&quot;Sarabun&quot;&gt;เริ่มต้น&lt;/font&gt;" style="ellipse;whiteSpace=wrap;html=1;" vertex="1" parent="ktyG6adJuwGK9dDU-hrX-34">
          <mxGeometry x="255" y="40" width="130" height="30" as="geometry" />
        </mxCell>
        <mxCell id="ktyG6adJuwGK9dDU-hrX-36" value="&lt;font face=&quot;Sarabun&quot;&gt;สิ้นสุด&lt;/font&gt;" style="ellipse;whiteSpace=wrap;html=1;" vertex="1" parent="ktyG6adJuwGK9dDU-hrX-34">
          <mxGeometry x="255" y="720" width="130" height="30" as="geometry" />
        </mxCell>
        <mxCell id="ktyG6adJuwGK9dDU-hrX-49" value="แสดงรายการและราคาสินค้า" style="rounded=0;whiteSpace=wrap;html=1;fontFamily=Sarabun;fontSource=https://fonts.googleapis.com/css?family=Sarabun;" vertex="1" parent="ktyG6adJuwGK9dDU-hrX-34">
          <mxGeometry x="235" y="100" width="170" height="30" as="geometry" />
        </mxCell>
        <mxCell id="ktyG6adJuwGK9dDU-hrX-50" value="" style="endArrow=classic;html=1;rounded=0;" edge="1" parent="ktyG6adJuwGK9dDU-hrX-34">
          <mxGeometry width="50" height="50" relative="1" as="geometry">
            <mxPoint x="319" y="70" as="sourcePoint" />
            <mxPoint x="319.5" y="100" as="targetPoint" />
          </mxGeometry>
        </mxCell>
        <mxCell id="ktyG6adJuwGK9dDU-hrX-51" value="" style="endArrow=classic;html=1;rounded=0;" edge="1" parent="ktyG6adJuwGK9dDU-hrX-34">
          <mxGeometry width="50" height="50" relative="1" as="geometry">
            <mxPoint x="319.75" y="130" as="sourcePoint" />
            <mxPoint x="320.25" y="160" as="targetPoint" />
          </mxGeometry>
        </mxCell>
        <mxCell id="ktyG6adJuwGK9dDU-hrX-52" value="จำนวนสินค้า" style="rhombus;whiteSpace=wrap;html=1;fontFamily=Sarabun;fontSource=https://fonts.googleapis.com/css?family=Sarabun;" vertex="1" parent="ktyG6adJuwGK9dDU-hrX-34">
          <mxGeometry x="270" y="160" width="100" height="60" as="geometry" />
        </mxCell>
        <mxCell id="ktyG6adJuwGK9dDU-hrX-54" value="" style="endArrow=classic;html=1;rounded=0;" edge="1" parent="ktyG6adJuwGK9dDU-hrX-34">
          <mxGeometry width="50" height="50" relative="1" as="geometry">
            <mxPoint x="319.71000000000004" y="220" as="sourcePoint" />
            <mxPoint x="320" y="275" as="targetPoint" />
          </mxGeometry>
        </mxCell>
        <mxCell id="ktyG6adJuwGK9dDU-hrX-55" value="มีสินค้า" style="edgeLabel;html=1;align=center;verticalAlign=middle;resizable=0;points=[];fontFamily=Sarabun;fontSource=https://fonts.googleapis.com/css?family=Sarabun;" vertex="1" connectable="0" parent="ktyG6adJuwGK9dDU-hrX-54">
          <mxGeometry x="-0.4142" y="-1" relative="1" as="geometry">
            <mxPoint as="offset" />
          </mxGeometry>
        </mxCell>
        <mxCell id="ktyG6adJuwGK9dDU-hrX-56" value="" style="endArrow=classic;html=1;rounded=0;exitX=1;exitY=0.5;exitDx=0;exitDy=0;entryX=0.5;entryY=0;entryDx=0;entryDy=0;entryPerimeter=0;" edge="1" parent="ktyG6adJuwGK9dDU-hrX-34" source="ktyG6adJuwGK9dDU-hrX-52" target="ktyG6adJuwGK9dDU-hrX-69">
          <mxGeometry width="50" height="50" relative="1" as="geometry">
            <mxPoint x="400" y="195" as="sourcePoint" />
            <mxPoint x="480" y="370" as="targetPoint" />
            <Array as="points">
              <mxPoint x="390" y="190" />
              <mxPoint x="480" y="190" />
              <mxPoint x="560" y="190" />
            </Array>
          </mxGeometry>
        </mxCell>
        <mxCell id="ktyG6adJuwGK9dDU-hrX-57" value="&lt;font data-font-src=&quot;https://fonts.googleapis.com/css?family=Sarabun&quot; face=&quot;Sarabun&quot;&gt;ไม่มีสินค้า&lt;/font&gt;" style="edgeLabel;html=1;align=center;verticalAlign=middle;resizable=0;points=[];" vertex="1" connectable="0" parent="ktyG6adJuwGK9dDU-hrX-56">
          <mxGeometry x="-0.0019" y="-2" relative="1" as="geometry">
            <mxPoint as="offset" />
          </mxGeometry>
        </mxCell>
        <mxCell id="ktyG6adJuwGK9dDU-hrX-60" value="แสดงสินค้าหมด" style="shape=parallelogram;perimeter=parallelogramPerimeter;whiteSpace=wrap;html=1;fixedSize=1;fontFamily=Sarabun;fontSource=https://fonts.googleapis.com/css?family=Sarabun;" vertex="1" parent="ktyG6adJuwGK9dDU-hrX-34">
          <mxGeometry x="500" y="610" width="120" height="30" as="geometry" />
        </mxCell>
        <mxCell id="ktyG6adJuwGK9dDU-hrX-63" value="ตรวจวันหมดอายุสินค้า" style="rounded=0;whiteSpace=wrap;html=1;fontFamily=Sarabun;fontSource=https://fonts.googleapis.com/css?family=Sarabun;" vertex="1" parent="ktyG6adJuwGK9dDU-hrX-34">
          <mxGeometry x="260" y="280" width="120" height="30" as="geometry" />
        </mxCell>
        <mxCell id="ktyG6adJuwGK9dDU-hrX-64" value="แสดงสินค้า" style="shape=parallelogram;perimeter=parallelogramPerimeter;whiteSpace=wrap;html=1;fixedSize=1;fontFamily=Sarabun;fontSource=https://fonts.googleapis.com/css?family=Sarabun;" vertex="1" parent="ktyG6adJuwGK9dDU-hrX-34">
          <mxGeometry x="260" y="370" width="120" height="30" as="geometry" />
        </mxCell>
        <mxCell id="ktyG6adJuwGK9dDU-hrX-65" value="" style="endArrow=classic;html=1;rounded=0;entryX=0.5;entryY=0;entryDx=0;entryDy=0;" edge="1" parent="ktyG6adJuwGK9dDU-hrX-34" target="ktyG6adJuwGK9dDU-hrX-64">
          <mxGeometry width="50" height="50" relative="1" as="geometry">
            <mxPoint x="319" y="310" as="sourcePoint" />
            <mxPoint x="319.28999999999996" y="365" as="targetPoint" />
          </mxGeometry>
        </mxCell>
        <mxCell id="ktyG6adJuwGK9dDU-hrX-66" value="ไม่หมดอายุ" style="edgeLabel;html=1;align=center;verticalAlign=middle;resizable=0;points=[];fontFamily=Sarabun;fontSource=https://fonts.googleapis.com/css?family=Sarabun;" vertex="1" connectable="0" parent="ktyG6adJuwGK9dDU-hrX-65">
          <mxGeometry x="-0.4142" y="-1" relative="1" as="geometry">
            <mxPoint as="offset" />
          </mxGeometry>
        </mxCell>
        <mxCell id="ktyG6adJuwGK9dDU-hrX-67" value="" style="endArrow=classic;html=1;rounded=0;exitX=1;exitY=0.5;exitDx=0;exitDy=0;entryX=0;entryY=0.5;entryDx=0;entryDy=0;entryPerimeter=0;" edge="1" parent="ktyG6adJuwGK9dDU-hrX-34" target="ktyG6adJuwGK9dDU-hrX-69">
          <mxGeometry width="50" height="50" relative="1" as="geometry">
            <mxPoint x="380" y="300" as="sourcePoint" />
            <mxPoint x="470" y="300" as="targetPoint" />
            <Array as="points">
              <mxPoint x="400" y="300" />
              <mxPoint x="410" y="300" />
            </Array>
          </mxGeometry>
        </mxCell>
        <mxCell id="ktyG6adJuwGK9dDU-hrX-68" value="&lt;font face=&quot;Sarabun&quot;&gt;หมดอายุ&lt;/font&gt;" style="edgeLabel;html=1;align=center;verticalAlign=middle;resizable=0;points=[];" vertex="1" connectable="0" parent="ktyG6adJuwGK9dDU-hrX-67">
          <mxGeometry x="-0.0019" y="-2" relative="1" as="geometry">
            <mxPoint as="offset" />
          </mxGeometry>
        </mxCell>
        <mxCell id="ktyG6adJuwGK9dDU-hrX-225" value="" style="edgeStyle=orthogonalEdgeStyle;rounded=0;orthogonalLoop=1;jettySize=auto;html=1;" edge="1" parent="ktyG6adJuwGK9dDU-hrX-34" source="ktyG6adJuwGK9dDU-hrX-69" target="ktyG6adJuwGK9dDU-hrX-60">
          <mxGeometry relative="1" as="geometry" />
        </mxCell>
        <mxCell id="ktyG6adJuwGK9dDU-hrX-69" value="" style="strokeWidth=2;html=1;shape=mxgraph.flowchart.start_2;whiteSpace=wrap;" vertex="1" parent="ktyG6adJuwGK9dDU-hrX-34">
          <mxGeometry x="550" y="290" width="20" height="20" as="geometry" />
        </mxCell>
        <mxCell id="ktyG6adJuwGK9dDU-hrX-75" value="" style="endArrow=classic;html=1;rounded=0;" edge="1" parent="ktyG6adJuwGK9dDU-hrX-34">
          <mxGeometry width="50" height="50" relative="1" as="geometry">
            <mxPoint x="319.71000000000004" y="400" as="sourcePoint" />
            <mxPoint x="320.21000000000004" y="430" as="targetPoint" />
          </mxGeometry>
        </mxCell>
        <mxCell id="ktyG6adJuwGK9dDU-hrX-76" value="" style="endArrow=classic;html=1;rounded=0;" edge="1" parent="ktyG6adJuwGK9dDU-hrX-34">
          <mxGeometry width="50" height="50" relative="1" as="geometry">
            <mxPoint x="319.71000000000004" y="460" as="sourcePoint" />
            <mxPoint x="320.21000000000004" y="490" as="targetPoint" />
          </mxGeometry>
        </mxCell>
        <mxCell id="ktyG6adJuwGK9dDU-hrX-74" value="&lt;font data-font-src=&quot;https://fonts.googleapis.com/css?family=Sarabun&quot; face=&quot;Sarabun&quot;&gt;สั่งสินค้า&lt;/font&gt;" style="shape=process;whiteSpace=wrap;html=1;backgroundOutline=1;" vertex="1" parent="ktyG6adJuwGK9dDU-hrX-34">
          <mxGeometry x="260" y="430" width="120" height="30" as="geometry" />
        </mxCell>
        <mxCell id="ktyG6adJuwGK9dDU-hrX-214" value="เลือกสินค้าและใส่จำนวน" style="rounded=0;whiteSpace=wrap;html=1;fontFamily=Sarabun;fontSource=https://fonts.googleapis.com/css?family=Sarabun;" vertex="1" parent="ktyG6adJuwGK9dDU-hrX-34">
          <mxGeometry x="250" y="490" width="140" height="30" as="geometry" />
        </mxCell>
        <mxCell id="ktyG6adJuwGK9dDU-hrX-215" value="จ่ายเงิน" style="rounded=0;whiteSpace=wrap;html=1;fontFamily=Sarabun;fontSource=https://fonts.googleapis.com/css?family=Sarabun;" vertex="1" parent="ktyG6adJuwGK9dDU-hrX-34">
          <mxGeometry x="280" y="550" width="80" height="30" as="geometry" />
        </mxCell>
        <mxCell id="ktyG6adJuwGK9dDU-hrX-216" value="" style="endArrow=classic;html=1;rounded=0;exitX=0.5;exitY=1;exitDx=0;exitDy=0;entryX=0.5;entryY=0;entryDx=0;entryDy=0;" edge="1" parent="ktyG6adJuwGK9dDU-hrX-34" source="ktyG6adJuwGK9dDU-hrX-214" target="ktyG6adJuwGK9dDU-hrX-215">
          <mxGeometry width="50" height="50" relative="1" as="geometry">
            <mxPoint x="340" y="530" as="sourcePoint" />
            <mxPoint x="340.5" y="560" as="targetPoint" />
          </mxGeometry>
        </mxCell>
        <mxCell id="ktyG6adJuwGK9dDU-hrX-217" value="แสดงรายการสินค้าและยอดรวมทั้งหมด" style="shape=parallelogram;perimeter=parallelogramPerimeter;whiteSpace=wrap;html=1;fixedSize=1;fontFamily=Sarabun;fontSource=https://fonts.googleapis.com/css?family=Sarabun;" vertex="1" parent="ktyG6adJuwGK9dDU-hrX-34">
          <mxGeometry x="200" y="610" width="240" height="30" as="geometry" />
        </mxCell>
        <mxCell id="ktyG6adJuwGK9dDU-hrX-218" value="" style="endArrow=classic;html=1;rounded=0;exitX=0.5;exitY=1;exitDx=0;exitDy=0;entryX=0.5;entryY=0;entryDx=0;entryDy=0;" edge="1" parent="ktyG6adJuwGK9dDU-hrX-34">
          <mxGeometry width="50" height="50" relative="1" as="geometry">
            <mxPoint x="319.5" y="580" as="sourcePoint" />
            <mxPoint x="319.5" y="610" as="targetPoint" />
          </mxGeometry>
        </mxCell>
        <mxCell id="ktyG6adJuwGK9dDU-hrX-219" value="" style="endArrow=classic;html=1;rounded=0;exitX=0.5;exitY=1;exitDx=0;exitDy=0;entryX=0.5;entryY=0;entryDx=0;entryDy=0;entryPerimeter=0;" edge="1" parent="ktyG6adJuwGK9dDU-hrX-34" target="ktyG6adJuwGK9dDU-hrX-227">
          <mxGeometry width="50" height="50" relative="1" as="geometry">
            <mxPoint x="319.5" y="640" as="sourcePoint" />
            <mxPoint x="319.5" y="670" as="targetPoint" />
          </mxGeometry>
        </mxCell>
        <mxCell id="ktyG6adJuwGK9dDU-hrX-227" value="" style="strokeWidth=2;html=1;shape=mxgraph.flowchart.start_2;whiteSpace=wrap;" vertex="1" parent="ktyG6adJuwGK9dDU-hrX-34">
          <mxGeometry x="310" y="670" width="20" height="20" as="geometry" />
        </mxCell>
        <mxCell id="ktyG6adJuwGK9dDU-hrX-228" value="" style="endArrow=classic;html=1;rounded=0;exitX=0.5;exitY=1;exitDx=0;exitDy=0;entryX=0.5;entryY=0;entryDx=0;entryDy=0;" edge="1" parent="ktyG6adJuwGK9dDU-hrX-34">
          <mxGeometry width="50" height="50" relative="1" as="geometry">
            <mxPoint x="319.47" y="690" as="sourcePoint" />
            <mxPoint x="319.47" y="720" as="targetPoint" />
          </mxGeometry>
        </mxCell>
        <mxCell id="ktyG6adJuwGK9dDU-hrX-229" value="" style="endArrow=classic;html=1;rounded=0;exitX=0.5;exitY=1;exitDx=0;exitDy=0;entryX=1;entryY=0.5;entryDx=0;entryDy=0;entryPerimeter=0;" edge="1" parent="ktyG6adJuwGK9dDU-hrX-34" source="ktyG6adJuwGK9dDU-hrX-60" target="ktyG6adJuwGK9dDU-hrX-227">
          <mxGeometry width="50" height="50" relative="1" as="geometry">
            <mxPoint x="540" y="660" as="sourcePoint" />
            <mxPoint x="540" y="690" as="targetPoint" />
            <Array as="points">
              <mxPoint x="560" y="680" />
            </Array>
          </mxGeometry>
        </mxCell>
        <mxCell id="ktyG6adJuwGK9dDU-hrX-37" value="&lt;font data-font-src=&quot;https://fonts.googleapis.com/css?family=Sarabun&quot; face=&quot;Sarabun&quot;&gt;โจทย์ปัญหา&lt;/font&gt;" style="swimlane;whiteSpace=wrap;html=1;" vertex="1" parent="1">
          <mxGeometry x="440" y="340" width="640" height="240" as="geometry" />
        </mxCell>
        <mxCell id="ktyG6adJuwGK9dDU-hrX-38" value="&lt;font data-font-src=&quot;https://fonts.googleapis.com/css?family=Sarabun&quot; face=&quot;Sarabun&quot; style=&quot;font-size: 14px;&quot;&gt;จงเขียน Flowchart เพื่อแสดงขั้นตอนการทำงาน ของเครื่องขายน้ำอัตโนมัติที่ชื่อว่า &quot;ตะพาบลอย&quot;&lt;br&gt;โดยจะต้องมีสินค้าดังนี้&lt;br&gt;&lt;u&gt;ประเภทน้ำ&lt;span style=&quot;white-space: pre;&quot;&gt;&#x9;&lt;/span&gt;&lt;span style=&quot;white-space: pre;&quot;&gt;&#x9;&lt;/span&gt;&lt;span style=&quot;white-space: pre;&quot;&gt;&#x9;&lt;/span&gt;&lt;span style=&quot;white-space: pre;&quot;&gt;&#x9;&lt;/span&gt;&lt;span style=&quot;white-space: pre;&quot;&gt;&#x9;&lt;/span&gt;&lt;span style=&quot;white-space: pre;&quot;&gt;&#x9;&lt;span style=&quot;white-space: pre;&quot;&gt;&#x9;&lt;/span&gt;ข&lt;/span&gt;นม&lt;/u&gt;&lt;br&gt;&lt;span style=&quot;white-space: pre;&quot;&gt;&#x9;&lt;/span&gt;- โค้ก กระป๋องละ 10 บาท&lt;span style=&quot;white-space: pre;&quot;&gt;&#x9;&lt;/span&gt;&lt;span style=&quot;white-space: pre;&quot;&gt;&#x9;&lt;/span&gt;&lt;span style=&quot;white-space: pre;&quot;&gt;&#x9;&lt;/span&gt;&lt;span style=&quot;white-space: pre;&quot;&gt;&#x9;&lt;/span&gt;- เมล็ดทานตะวัน 13 บาท&lt;br&gt;&lt;span style=&quot;white-space: pre;&quot;&gt;&#x9;&lt;/span&gt;- น้ำเขียว กระป๋องละ 12 บาท&lt;span style=&quot;white-space: pre;&quot;&gt;&#x9;&lt;/span&gt;&lt;span style=&quot;white-space: pre;&quot;&gt;&#x9;&lt;/span&gt;&lt;span style=&quot;white-space: pre;&quot;&gt;&#x9;&lt;/span&gt;- ถั่วแปบ 20 บาท&lt;br&gt;&lt;span style=&quot;white-space: pre;&quot;&gt;&#x9;&lt;/span&gt;- อเมริกาโน่ 30 บาท&lt;span style=&quot;white-space: pre;&quot;&gt;&#x9;&lt;/span&gt;&lt;span style=&quot;white-space: pre;&quot;&gt;&#x9;&lt;/span&gt;&lt;span style=&quot;white-space: pre;&quot;&gt;&#x9;&lt;/span&gt;&lt;span style=&quot;white-space: pre;&quot;&gt;&#x9;&lt;/span&gt;&lt;span style=&quot;white-space: pre;&quot;&gt;&#x9;&lt;/span&gt;- จิ้นส้มหมก 15 บาท&lt;br&gt;&lt;span style=&quot;white-space: pre;&quot;&gt;&#x9;&lt;/span&gt;- ลาเต้ หวานเจี๊ยบ 35 บาท&lt;span style=&quot;white-space: pre;&quot;&gt;&#x9;&lt;/span&gt;&lt;br&gt;&lt;br&gt;&lt;u&gt;สิ่งที่ระบบควรจะทำได้&lt;/u&gt;&lt;br&gt;&lt;span style=&quot;white-space: pre;&quot;&gt;&#x9;&lt;/span&gt;- ลูกค้าเลือกสินค้า, ระบบจะต้องรวมยอดขาย และรวมรายการสินค้าทั้งหมดที่ลูกค้าเลือก&lt;br&gt;&lt;span style=&quot;white-space: pre;&quot;&gt;&#x9;&lt;/span&gt;- สรุปยอดว่าเหลือเงินในตู้อีกเท่าไหร่ เหลือเหรียญอะไรบ้าง? ธนบัตรอะไรบ้าง? อย่างละเท่าไหร่?&lt;br&gt;&lt;br&gt;&lt;br&gt;&lt;/font&gt;" style="text;html=1;align=left;verticalAlign=middle;resizable=0;points=[];autosize=1;strokeColor=none;fillColor=none;fontSize=14;" vertex="1" parent="ktyG6adJuwGK9dDU-hrX-37">
          <mxGeometry x="25" y="30" width="580" height="240" as="geometry" />
        </mxCell>
        <mxCell id="ktyG6adJuwGK9dDU-hrX-143" value="ฟังก์ชันสั่งสินค้า" style="swimlane;fontFamily=Sarabun;fontSource=https://fonts.googleapis.com/css?family=Sarabun;" vertex="1" parent="1">
          <mxGeometry x="1160" y="660" width="640" height="820" as="geometry" />
        </mxCell>
        <mxCell id="ktyG6adJuwGK9dDU-hrX-145" value="&lt;font face=&quot;Sarabun&quot;&gt;สิ้นสุด&lt;/font&gt;" style="ellipse;whiteSpace=wrap;html=1;" vertex="1" parent="ktyG6adJuwGK9dDU-hrX-143">
          <mxGeometry x="255" y="776" width="130" height="30" as="geometry" />
        </mxCell>
        <mxCell id="ktyG6adJuwGK9dDU-hrX-169" value="จำนวนเงินที่มีอยู่ในเครื่อง" style="rhombus;whiteSpace=wrap;html=1;fontFamily=Sarabun;fontSource=https://fonts.googleapis.com/css?family=Sarabun;" vertex="1" parent="ktyG6adJuwGK9dDU-hrX-143">
          <mxGeometry x="250" y="100" width="140" height="110" as="geometry" />
        </mxCell>
        <mxCell id="ktyG6adJuwGK9dDU-hrX-170" value="" style="endArrow=classic;html=1;rounded=0;" edge="1" parent="ktyG6adJuwGK9dDU-hrX-143">
          <mxGeometry width="50" height="50" relative="1" as="geometry">
            <mxPoint x="319.71000000000004" y="70" as="sourcePoint" />
            <mxPoint x="320.21000000000004" y="100" as="targetPoint" />
          </mxGeometry>
        </mxCell>
        <mxCell id="ktyG6adJuwGK9dDU-hrX-171" value="" style="endArrow=classic;html=1;rounded=0;exitX=0.5;exitY=1;exitDx=0;exitDy=0;" edge="1" parent="ktyG6adJuwGK9dDU-hrX-143" source="ktyG6adJuwGK9dDU-hrX-169">
          <mxGeometry width="50" height="50" relative="1" as="geometry">
            <mxPoint x="319.50000000000006" y="260" as="sourcePoint" />
            <mxPoint x="320" y="260" as="targetPoint" />
          </mxGeometry>
        </mxCell>
        <mxCell id="ktyG6adJuwGK9dDU-hrX-172" value="มี" style="edgeLabel;html=1;align=center;verticalAlign=middle;resizable=0;points=[];fontFamily=Sarabun;fontSource=https://fonts.googleapis.com/css?family=Sarabun;" vertex="1" connectable="0" parent="ktyG6adJuwGK9dDU-hrX-171">
          <mxGeometry x="-0.4142" y="-1" relative="1" as="geometry">
            <mxPoint as="offset" />
          </mxGeometry>
        </mxCell>
        <mxCell id="ktyG6adJuwGK9dDU-hrX-173" value="" style="endArrow=classic;html=1;rounded=0;exitX=1;exitY=0.5;exitDx=0;exitDy=0;entryX=0.5;entryY=0;entryDx=0;entryDy=0;" edge="1" parent="ktyG6adJuwGK9dDU-hrX-143" source="ktyG6adJuwGK9dDU-hrX-169" target="ktyG6adJuwGK9dDU-hrX-177">
          <mxGeometry width="50" height="50" relative="1" as="geometry">
            <mxPoint x="395" y="135" as="sourcePoint" />
            <mxPoint x="480" y="260" as="targetPoint" />
            <Array as="points">
              <mxPoint x="510" y="155" />
            </Array>
          </mxGeometry>
        </mxCell>
        <mxCell id="ktyG6adJuwGK9dDU-hrX-174" value="&lt;font data-font-src=&quot;https://fonts.googleapis.com/css?family=Sarabun&quot; face=&quot;Sarabun&quot;&gt;ไม่มี&lt;/font&gt;" style="edgeLabel;html=1;align=center;verticalAlign=middle;resizable=0;points=[];" vertex="1" connectable="0" parent="ktyG6adJuwGK9dDU-hrX-173">
          <mxGeometry x="-0.0019" y="-2" relative="1" as="geometry">
            <mxPoint as="offset" />
          </mxGeometry>
        </mxCell>
        <mxCell id="ktyG6adJuwGK9dDU-hrX-177" value="ระบบแจ้งเงินหมด" style="rounded=0;whiteSpace=wrap;html=1;fontFamily=Sarabun;fontSource=https://fonts.googleapis.com/css?family=Sarabun;" vertex="1" parent="ktyG6adJuwGK9dDU-hrX-143">
          <mxGeometry x="450" y="287.5" width="120" height="30" as="geometry" />
        </mxCell>
        <mxCell id="ktyG6adJuwGK9dDU-hrX-178" value="ระบบโอนเงิน" style="shape=parallelogram;perimeter=parallelogramPerimeter;whiteSpace=wrap;html=1;fixedSize=1;fontFamily=Sarabun;fontSource=https://fonts.googleapis.com/css?family=Sarabun;" vertex="1" parent="ktyG6adJuwGK9dDU-hrX-143">
          <mxGeometry x="450" y="731" width="120" height="30" as="geometry" />
        </mxCell>
        <mxCell id="ktyG6adJuwGK9dDU-hrX-179" value="" style="endArrow=classic;html=1;rounded=0;entryX=0.5;entryY=0;entryDx=0;entryDy=0;entryPerimeter=0;" edge="1" parent="ktyG6adJuwGK9dDU-hrX-143" source="ktyG6adJuwGK9dDU-hrX-177" target="ktyG6adJuwGK9dDU-hrX-223">
          <mxGeometry width="50" height="50" relative="1" as="geometry">
            <mxPoint x="510" y="326" as="sourcePoint" />
            <mxPoint x="510" y="601" as="targetPoint" />
          </mxGeometry>
        </mxCell>
        <mxCell id="ktyG6adJuwGK9dDU-hrX-180" value="จำนวน&lt;span style=&quot;font-size: 14px; text-align: left; text-wrap-mode: nowrap;&quot;&gt;เหรียญ&lt;/span&gt;" style="rounded=0;whiteSpace=wrap;html=1;fontFamily=Sarabun;fontSource=https://fonts.googleapis.com/css?family=Sarabun;" vertex="1" parent="ktyG6adJuwGK9dDU-hrX-143">
          <mxGeometry x="260" y="376" width="120" height="30" as="geometry" />
        </mxCell>
        <mxCell id="ktyG6adJuwGK9dDU-hrX-181" value="จำนวน&lt;span style=&quot;font-size: 14px; text-align: left; text-wrap-mode: nowrap;&quot;&gt;ธนบัตร&lt;/span&gt;" style="rounded=0;whiteSpace=wrap;html=1;fontFamily=Sarabun;fontSource=https://fonts.googleapis.com/css?family=Sarabun;" vertex="1" parent="ktyG6adJuwGK9dDU-hrX-143">
          <mxGeometry x="120" y="376" width="120" height="30" as="geometry" />
        </mxCell>
        <mxCell id="ktyG6adJuwGK9dDU-hrX-183" value="" style="endArrow=classic;html=1;rounded=0;entryX=0.5;entryY=0;entryDx=0;entryDy=0;" edge="1" parent="ktyG6adJuwGK9dDU-hrX-143">
          <mxGeometry width="50" height="50" relative="1" as="geometry">
            <mxPoint x="319.5" y="326" as="sourcePoint" />
            <mxPoint x="319.5" y="376" as="targetPoint" />
          </mxGeometry>
        </mxCell>
        <mxCell id="ktyG6adJuwGK9dDU-hrX-184" value="" style="endArrow=classic;html=1;rounded=0;entryX=0.5;entryY=0;entryDx=0;entryDy=0;exitX=0.471;exitY=0.955;exitDx=0;exitDy=0;exitPerimeter=0;" edge="1" parent="ktyG6adJuwGK9dDU-hrX-143" source="ktyG6adJuwGK9dDU-hrX-222">
          <mxGeometry width="50" height="50" relative="1" as="geometry">
            <mxPoint x="260" y="300" as="sourcePoint" />
            <mxPoint x="179.5" y="376" as="targetPoint" />
            <Array as="points">
              <mxPoint x="180" y="300" />
            </Array>
          </mxGeometry>
        </mxCell>
        <mxCell id="ktyG6adJuwGK9dDU-hrX-185" value="แยกชนิดของเหรียญ" style="rounded=0;whiteSpace=wrap;html=1;fontFamily=Sarabun;fontSource=https://fonts.googleapis.com/css?family=Sarabun;" vertex="1" parent="ktyG6adJuwGK9dDU-hrX-143">
          <mxGeometry x="260" y="456" width="120" height="30" as="geometry" />
        </mxCell>
        <mxCell id="ktyG6adJuwGK9dDU-hrX-186" value="แยกชนิดของธนบัตร" style="rounded=0;whiteSpace=wrap;html=1;fontFamily=Sarabun;fontSource=https://fonts.googleapis.com/css?family=Sarabun;" vertex="1" parent="ktyG6adJuwGK9dDU-hrX-143">
          <mxGeometry x="120" y="456" width="120" height="30" as="geometry" />
        </mxCell>
        <mxCell id="ktyG6adJuwGK9dDU-hrX-187" value="" style="endArrow=classic;html=1;rounded=0;entryX=0.5;entryY=0;entryDx=0;entryDy=0;" edge="1" parent="ktyG6adJuwGK9dDU-hrX-143">
          <mxGeometry width="50" height="50" relative="1" as="geometry">
            <mxPoint x="319.5" y="406" as="sourcePoint" />
            <mxPoint x="319.5" y="456" as="targetPoint" />
          </mxGeometry>
        </mxCell>
        <mxCell id="ktyG6adJuwGK9dDU-hrX-188" value="" style="endArrow=classic;html=1;rounded=0;entryX=0.5;entryY=0;entryDx=0;entryDy=0;" edge="1" parent="ktyG6adJuwGK9dDU-hrX-143">
          <mxGeometry width="50" height="50" relative="1" as="geometry">
            <mxPoint x="179.5" y="406" as="sourcePoint" />
            <mxPoint x="179.5" y="456" as="targetPoint" />
          </mxGeometry>
        </mxCell>
        <mxCell id="ktyG6adJuwGK9dDU-hrX-196" value="" style="strokeWidth=2;html=1;shape=mxgraph.flowchart.start_2;whiteSpace=wrap;" vertex="1" parent="ktyG6adJuwGK9dDU-hrX-143">
          <mxGeometry x="310" y="536" width="20" height="20" as="geometry" />
        </mxCell>
        <mxCell id="ktyG6adJuwGK9dDU-hrX-198" value="" style="endArrow=classic;html=1;rounded=0;entryX=0;entryY=0.5;entryDx=0;entryDy=0;entryPerimeter=0;exitX=0.5;exitY=1;exitDx=0;exitDy=0;" edge="1" parent="ktyG6adJuwGK9dDU-hrX-143" target="ktyG6adJuwGK9dDU-hrX-196">
          <mxGeometry width="50" height="50" relative="1" as="geometry">
            <mxPoint x="180" y="486" as="sourcePoint" />
            <mxPoint x="310.5" y="636" as="targetPoint" />
            <Array as="points">
              <mxPoint x="180" y="546" />
            </Array>
          </mxGeometry>
        </mxCell>
        <mxCell id="ktyG6adJuwGK9dDU-hrX-197" value="" style="endArrow=classic;html=1;rounded=0;exitX=0.5;exitY=1;exitDx=0;exitDy=0;entryX=0.5;entryY=0;entryDx=0;entryDy=0;entryPerimeter=0;" edge="1" parent="ktyG6adJuwGK9dDU-hrX-143" source="ktyG6adJuwGK9dDU-hrX-185" target="ktyG6adJuwGK9dDU-hrX-196">
          <mxGeometry width="50" height="50" relative="1" as="geometry">
            <mxPoint x="334.71000000000004" y="606" as="sourcePoint" />
            <mxPoint x="335.21000000000004" y="636" as="targetPoint" />
          </mxGeometry>
        </mxCell>
        <mxCell id="ktyG6adJuwGK9dDU-hrX-200" value="" style="endArrow=classic;html=1;rounded=0;exitX=0.5;exitY=1;exitDx=0;exitDy=0;exitPerimeter=0;" edge="1" parent="ktyG6adJuwGK9dDU-hrX-143" source="ktyG6adJuwGK9dDU-hrX-196">
          <mxGeometry width="50" height="50" relative="1" as="geometry">
            <mxPoint x="334.71000000000004" y="656" as="sourcePoint" />
            <mxPoint x="320" y="586" as="targetPoint" />
            <Array as="points">
              <mxPoint x="320" y="586" />
            </Array>
          </mxGeometry>
        </mxCell>
        <mxCell id="ktyG6adJuwGK9dDU-hrX-204" value="เตรียมเงินถอน" style="rhombus;whiteSpace=wrap;html=1;fontFamily=Sarabun;fontSource=https://fonts.googleapis.com/css?family=Sarabun;" vertex="1" parent="ktyG6adJuwGK9dDU-hrX-143">
          <mxGeometry x="270" y="586" width="100" height="60" as="geometry" />
        </mxCell>
        <mxCell id="ktyG6adJuwGK9dDU-hrX-208" value="" style="endArrow=classic;html=1;rounded=0;exitX=1;exitY=0.5;exitDx=0;exitDy=0;entryX=0;entryY=0.5;entryDx=0;entryDy=0;entryPerimeter=0;" edge="1" parent="ktyG6adJuwGK9dDU-hrX-143" target="ktyG6adJuwGK9dDU-hrX-223">
          <mxGeometry width="50" height="50" relative="1" as="geometry">
            <mxPoint x="370" y="616" as="sourcePoint" />
            <mxPoint x="460" y="616" as="targetPoint" />
            <Array as="points">
              <mxPoint x="380" y="616" />
              <mxPoint x="410" y="616" />
            </Array>
          </mxGeometry>
        </mxCell>
        <mxCell id="ktyG6adJuwGK9dDU-hrX-209" value="&lt;font data-font-src=&quot;https://fonts.googleapis.com/css?family=Sarabun&quot; face=&quot;Sarabun&quot;&gt;ไม่ได้ถอนเงิน&lt;/font&gt;" style="edgeLabel;html=1;align=center;verticalAlign=middle;resizable=0;points=[];" vertex="1" connectable="0" parent="ktyG6adJuwGK9dDU-hrX-208">
          <mxGeometry x="-0.0019" y="-2" relative="1" as="geometry">
            <mxPoint as="offset" />
          </mxGeometry>
        </mxCell>
        <mxCell id="ktyG6adJuwGK9dDU-hrX-212" value="ถอนเงินตามจำนวน" style="shape=parallelogram;perimeter=parallelogramPerimeter;whiteSpace=wrap;html=1;fixedSize=1;fontFamily=Sarabun;fontSource=https://fonts.googleapis.com/css?family=Sarabun;" vertex="1" parent="ktyG6adJuwGK9dDU-hrX-143">
          <mxGeometry x="260" y="696" width="120" height="30" as="geometry" />
        </mxCell>
        <mxCell id="ktyG6adJuwGK9dDU-hrX-213" value="" style="endArrow=classic;html=1;rounded=0;entryX=0.5;entryY=0;entryDx=0;entryDy=0;" edge="1" parent="ktyG6adJuwGK9dDU-hrX-143">
          <mxGeometry width="50" height="50" relative="1" as="geometry">
            <mxPoint x="319.5" y="726" as="sourcePoint" />
            <mxPoint x="319.5" y="776" as="targetPoint" />
          </mxGeometry>
        </mxCell>
        <mxCell id="ktyG6adJuwGK9dDU-hrX-205" value="" style="endArrow=classic;html=1;rounded=0;exitX=0.5;exitY=1;exitDx=0;exitDy=0;entryX=0.5;entryY=0;entryDx=0;entryDy=0;" edge="1" parent="ktyG6adJuwGK9dDU-hrX-143" source="ktyG6adJuwGK9dDU-hrX-204" target="ktyG6adJuwGK9dDU-hrX-212">
          <mxGeometry width="50" height="50" relative="1" as="geometry">
            <mxPoint x="560" y="666" as="sourcePoint" />
            <mxPoint x="560" y="696" as="targetPoint" />
          </mxGeometry>
        </mxCell>
        <mxCell id="ktyG6adJuwGK9dDU-hrX-206" value="มี" style="edgeLabel;html=1;align=center;verticalAlign=middle;resizable=0;points=[];fontFamily=Sarabun;fontSource=https://fonts.googleapis.com/css?family=Sarabun;" vertex="1" connectable="0" parent="ktyG6adJuwGK9dDU-hrX-205">
          <mxGeometry x="-0.4142" y="-1" relative="1" as="geometry">
            <mxPoint as="offset" />
          </mxGeometry>
        </mxCell>
        <mxCell id="ktyG6adJuwGK9dDU-hrX-207" value="ได้ถอนเงิน" style="edgeLabel;html=1;align=center;verticalAlign=middle;resizable=0;points=[];" vertex="1" connectable="0" parent="ktyG6adJuwGK9dDU-hrX-205">
          <mxGeometry x="-0.36" y="-3" relative="1" as="geometry">
            <mxPoint as="offset" />
          </mxGeometry>
        </mxCell>
        <mxCell id="ktyG6adJuwGK9dDU-hrX-220" value="" style="strokeWidth=2;html=1;shape=mxgraph.flowchart.start_2;whiteSpace=wrap;" vertex="1" parent="ktyG6adJuwGK9dDU-hrX-143">
          <mxGeometry x="310" y="736" width="20" height="20" as="geometry" />
        </mxCell>
        <mxCell id="ktyG6adJuwGK9dDU-hrX-221" value="" style="endArrow=classic;html=1;rounded=0;entryX=1;entryY=0.5;entryDx=0;entryDy=0;entryPerimeter=0;exitX=0;exitY=0.5;exitDx=0;exitDy=0;" edge="1" parent="ktyG6adJuwGK9dDU-hrX-143" source="ktyG6adJuwGK9dDU-hrX-178" target="ktyG6adJuwGK9dDU-hrX-220">
          <mxGeometry width="50" height="50" relative="1" as="geometry">
            <mxPoint x="420" y="740" as="sourcePoint" />
            <mxPoint x="490" y="736" as="targetPoint" />
            <Array as="points">
              <mxPoint x="440" y="746" />
            </Array>
          </mxGeometry>
        </mxCell>
        <mxCell id="ktyG6adJuwGK9dDU-hrX-222" value="ตวรจเช็คจำนวนเงิน" style="rhombus;whiteSpace=wrap;html=1;fontFamily=Sarabun;fontSource=https://fonts.googleapis.com/css?family=Sarabun;direction=south;" vertex="1" parent="ktyG6adJuwGK9dDU-hrX-143">
          <mxGeometry x="265" y="260" width="110" height="85" as="geometry" />
        </mxCell>
        <mxCell id="ktyG6adJuwGK9dDU-hrX-223" value="" style="strokeWidth=2;html=1;shape=mxgraph.flowchart.start_2;whiteSpace=wrap;" vertex="1" parent="ktyG6adJuwGK9dDU-hrX-143">
          <mxGeometry x="500" y="606" width="20" height="20" as="geometry" />
        </mxCell>
        <mxCell id="ktyG6adJuwGK9dDU-hrX-224" value="" style="endArrow=classic;html=1;rounded=0;exitX=0.5;exitY=1;exitDx=0;exitDy=0;entryX=0.5;entryY=0;entryDx=0;entryDy=0;entryPerimeter=0;exitPerimeter=0;" edge="1" parent="ktyG6adJuwGK9dDU-hrX-143" source="ktyG6adJuwGK9dDU-hrX-223">
          <mxGeometry width="50" height="50" relative="1" as="geometry">
            <mxPoint x="509.47" y="681" as="sourcePoint" />
            <mxPoint x="509.47" y="731" as="targetPoint" />
          </mxGeometry>
        </mxCell>
        <mxCell id="ktyG6adJuwGK9dDU-hrX-226" value="&lt;font data-font-src=&quot;https://fonts.googleapis.com/css?family=Sarabun&quot; face=&quot;Sarabun&quot;&gt;เริ่มต้น&lt;/font&gt;" style="ellipse;whiteSpace=wrap;html=1;" vertex="1" parent="ktyG6adJuwGK9dDU-hrX-143">
          <mxGeometry x="255" y="40" width="130" height="30" as="geometry" />
        </mxCell>
      </root>
    </mxGraphModel>
  </diagram>
</mxfile>
